<?xml version="1.0" encoding="utf-8"?>
<!-- Generator: Adobe Illustrator 27.1.1, SVG Export Plug-In . SVG Version: 6.00 Build 0)  -->
<svg version="1.1" id="Layer_1" xmlns="http://www.w3.org/2000/svg" x="0px"
     y="0px"
     viewBox="0 0 800 800" style="enable-background:new 0 0 800 800;" xml:space="preserve">
<style type="text/css">
	.st0{fill:#5F9392;}
	.st1{fill:#11A3A3;}
	.st2{fill:#4C4C4C;}
</style>
    <rect x="1.5" y="1.5" class="st0" width="797" height="797"/>
    <rect x="1.5" y="1.5" class="st1" width="398.5" height="398.5"/>
    <rect x="70.6" y="70.6" class="st1" width="727.9" height="727.9"/>
    <g>
	<g>
		<path class="st2" d="M178.9,516c-20.4,0-36.6-5.3-48.7-16c-12.1-10.7-18.2-25.1-18.2-43.3c0-19.1,6-34.2,18-45.1
			c12-10.9,28.4-16.4,49.3-16.4h61.8V376c0-12.1-3.8-21.5-11.5-28.2c-7.6-6.7-18.2-10-31.8-10c-11.9,0-21.7,2.4-29.5,7.3
			c-7.8,4.9-12.2,11.5-13.5,20h-32.7c2.2-17,10.2-30.5,24-40.7c13.8-10.2,31.2-15.3,52-15.3c23.3,0,41.7,5.9,55.3,17.6
			c13.6,11.8,20.4,27.8,20.4,48.2v137.5h-32v-38.2h-7.6l7.6-4c0,13.8-5.9,24.9-17.8,33.3C212.2,511.8,197.1,516,178.9,516z
			 M186.6,490.2c16,0,29.1-3.8,39.3-11.5c10.2-7.6,15.3-17.6,15.3-30v-28.4H180c-10.9,0-19.5,3-25.8,9.1c-6.3,6.1-9.5,14.4-9.5,25.1
			c0,11.2,3.8,19.9,11.3,26.2C163.6,487,173.7,490.2,186.6,490.2z"/>
        <path class="st2" d="M427.3,516c-16.7,0-30-4.4-39.8-13.3c-9.8-8.8-14.7-20.9-14.7-36.2l6.5,7.6h-6.5v38.2h-32.7V246.9h32.7V305
			l-0.7,45.5h7.3l-6.5,7.6c0-15,5-27,14.9-36c9.9-9,23.2-13.5,39.6-13.5c20.1,0,36.1,6.7,47.8,20c11.8,13.3,17.6,31.5,17.6,54.6
			v58.6c0,22.8-5.9,40.9-17.6,54.2C463.4,509.3,447.5,516,427.3,516z M416.4,487.6c13.8,0,24.5-4.2,32.2-12.5
			c7.6-8.4,11.5-20.2,11.5-35.5v-54.6c0-15.3-3.8-27.1-11.5-35.5c-7.6-8.4-18.4-12.5-32.2-12.5c-13.6,0-24.2,4.2-32,12.7
			c-7.8,8.5-11.6,20.2-11.6,35.3v54.6c0,15,3.9,26.8,11.6,35.3C392.2,483.4,402.8,487.6,416.4,487.6z"/>
        <path class="st2" d="M635.4,516c-16,0-29.9-3-41.8-9.1c-11.9-6.1-21-14.8-27.3-26.4c-6.3-11.5-9.5-25.2-9.5-40.9v-54.6
			c0-15.8,3.1-29.4,9.5-40.9c6.3-11.5,15.4-20.3,27.3-26.4c11.9-6.1,25.8-9.1,41.8-9.1c23,0,41.6,6.2,55.6,18.5
			c14.1,12.4,21.5,29.2,22.2,50.6h-32.7c-0.7-12.6-5-22.4-12.9-29.5c-7.9-7-18.6-10.5-32.2-10.5c-14.3,0-25.5,4.1-33.6,12.4
			c-8.1,8.2-12.2,19.8-12.2,34.5v54.9c0,15,4,26.7,12,34.9c8,8.2,19.3,12.4,33.8,12.4c13.6,0,24.3-3.5,32.2-10.5
			c7.9-7,12.2-16.8,12.9-29.5h32.7c-0.7,21.3-8.1,38.2-22.2,50.6C676.9,509.8,658.4,516,635.4,516z"/>
	</g>
</g>
</svg>
